<svg width="164" height="123" viewBox="0 0 164 123" fill="none" xmlns="http://www.w3.org/2000/svg">
<path d="M76.6576 104.687C105.018 104.687 128.009 81.4756 128.009 52.8433C128.009 24.2111 105.018 1 76.6576 1C48.2971 1 25.3064 24.2111 25.3064 52.8433C25.3064 81.4756 48.2971 104.687 76.6576 104.687Z" fill="#EAEEF9"/>
<g filter="url(#filter0_d_568_2858)">
<path d="M132.348 19.8805V86.7449C132.348 88.4139 131.005 89.7699 129.248 89.7699H25.0997C23.3432 89.7699 22 88.4139 22 86.7449V19.8805C22 18.2115 23.3432 16.8555 25.0997 16.8555H129.248C131.005 16.8555 132.348 18.2115 132.348 19.8805Z" fill="white"/>
</g>
<path d="M132.348 19.9848V24.1573H22V19.9848C22 18.2115 23.3432 16.8555 25.0997 16.8555H129.248C131.005 16.8555 132.348 18.2115 132.348 19.9848Z" fill="url(#paint0_linear_568_2858)"/>
<path d="M25.6177 21.8626C26.2456 21.8626 26.7546 21.3489 26.7546 20.7152C26.7546 20.0815 26.2456 19.5677 25.6177 19.5677C24.9897 19.5677 24.4807 20.0815 24.4807 20.7152C24.4807 21.3489 24.9897 21.8626 25.6177 21.8626Z" fill="white"/>
<path d="M28.8196 21.8626C29.4475 21.8626 29.9565 21.3489 29.9565 20.7152C29.9565 20.0815 29.4475 19.5677 28.8196 19.5677C28.1916 19.5677 27.6826 20.0815 27.6826 20.7152C27.6826 21.3489 28.1916 21.8626 28.8196 21.8626Z" fill="white"/>
<path d="M31.9194 21.8626C32.5473 21.8626 33.0564 21.3489 33.0564 20.7152C33.0564 20.0815 32.5473 19.5677 31.9194 19.5677C31.2915 19.5677 30.7825 20.0815 30.7825 20.7152C30.7825 21.3489 31.2915 21.8626 31.9194 21.8626Z" fill="white"/>
<path d="M117.106 33.2133H94.8936C94.383 33.2133 94 32.8358 94 32.3325V32.0808C94 31.5775 94.383 31.2 94.8936 31.2H117.106C117.617 31.2 118 31.5775 118 32.0808V32.3325C118 32.71 117.617 33.2133 117.106 33.2133Z" fill="#1C3754"/>
<path d="M127.846 43.2801H95.1538C94.5128 43.2801 94 42.8327 94 42.2734C94 41.7141 94.5128 41.2667 95.1538 41.2667H127.846C128.487 41.2667 129 41.7141 129 42.2734C128.872 42.8327 128.487 43.2801 127.846 43.2801Z" fill="url(#paint1_linear_568_2858)"/>
<path d="M127.846 49.32H95.1538C94.5128 49.32 94 48.8726 94 48.3133C94 47.754 94.5128 47.3066 95.1538 47.3066H127.846C128.487 47.3066 129 47.754 129 48.3133C128.872 48.8726 128.487 49.32 127.846 49.32Z" fill="url(#paint2_linear_568_2858)"/>
<path d="M127.846 55.36H95.1538C94.5128 55.36 94 54.9126 94 54.3533C94 53.7941 94.5128 53.3467 95.1538 53.3467H127.846C128.487 53.3467 129 53.7941 129 54.3533C128.872 55.0245 128.487 55.36 127.846 55.36Z" fill="url(#paint3_linear_568_2858)"/>
<path d="M111.245 61.4001H94.7552C94.3776 61.4001 94 61.0448 94 60.6895V60.0973C94 59.742 94.3776 59.3867 94.7552 59.3867H111.245C111.622 59.3867 112 59.742 112 60.0973V60.6895C112 61.0448 111.748 61.4001 111.245 61.4001Z" fill="url(#paint4_linear_568_2858)"/>
<path d="M92.776 8.51049C93.7059 8.51049 94.5325 7.78031 94.5325 6.73718C94.5325 5.79837 93.8092 4.96387 92.776 4.96387C91.8461 4.96387 91.0195 5.69406 91.0195 6.73718C91.1229 7.78031 91.8461 8.51049 92.776 8.51049Z" fill="url(#paint5_linear_568_2858)"/>
<path d="M46.9008 103.435C47.8307 103.435 48.6572 102.705 48.6572 101.662C48.6572 100.723 47.934 99.8883 46.9008 99.8883C45.9709 99.8883 45.1443 100.618 45.1443 101.662C45.1443 102.705 45.9709 103.435 46.9008 103.435Z" fill="url(#paint6_linear_568_2858)"/>
<path d="M84.377 42.6516C84.0789 42.3507 83.7808 42.2002 83.4827 41.8992C79.9054 38.8896 76.4771 35.8799 72.8998 32.8702C72.4526 32.5693 71.8564 32.2683 71.4092 32.2683C68.7263 32.2683 66.0433 32.2683 63.3603 32.2683C62.0188 32.2683 61.5717 32.7198 61.5717 34.0741C61.2735 36.9333 59.1868 39.1905 56.5038 39.1905C53.5227 39.1905 51.1378 37.2342 50.8397 34.2246C50.5416 31.6664 50.0945 32.2683 41.3002 32.2683C40.4059 32.2683 39.6606 32.5693 39.0644 33.1712C35.4871 36.1809 31.9098 39.1905 28.4816 42.2002C28.3325 42.3507 28.1834 42.5012 27.8853 42.6516C26.842 43.5545 26.6929 44.307 27.5872 45.3603C29.3759 47.4671 31.0155 49.5739 32.8041 51.6806C33.5494 52.734 33.9966 52.734 35.7852 51.9816C36.6796 51.5301 38.1701 50.7777 40.1078 49.8748V77.1123C40.1078 79.0686 40.555 79.52 42.4927 79.52C51.585 79.52 60.6773 79.52 69.7696 79.52C71.7074 79.52 72.1545 79.0686 72.1545 77.1123V49.7243C74.2413 50.7777 75.5828 51.5301 76.6262 51.9816C78.4148 52.734 78.7129 52.734 79.6073 51.6806C81.3959 49.5739 83.1846 47.3166 84.9732 45.2098C85.4204 44.3069 85.4204 43.5545 84.377 42.6516Z" fill="#DDE1F0"/>
<path d="M67.8319 51.6806L64.7018 53.9379C64.2546 54.3893 63.6584 54.3893 63.2112 53.9379L60.0811 51.6806C59.783 51.5302 59.783 51.2292 59.783 50.9282V45.9623C59.783 45.6613 60.0811 45.3604 60.3792 45.3604H67.5338C67.8319 45.3604 68.13 45.6613 68.13 45.9623V50.9282C68.13 51.2292 67.981 51.5302 67.8319 51.6806Z" fill="#C5CCDE"/>
<path d="M35.9344 51.9816C34.1457 52.8845 33.6985 52.734 32.9533 51.6806C31.1646 49.5739 29.376 47.4671 27.7364 45.3603C26.842 44.307 26.842 43.5545 28.0345 42.6516C28.1835 42.5012 28.3326 42.3507 28.6307 42.2002L35.9344 51.9816Z" fill="#C5CCDE"/>
<path d="M84.9733 45.3604C83.1846 47.4672 81.396 49.7244 79.6073 51.8312C78.862 52.7341 78.4149 52.8846 76.6262 52.1322L83.7808 42.0498C84.0789 42.3508 84.377 42.5013 84.6752 42.8022C85.7185 43.5546 85.8676 44.3071 84.9733 45.3604Z" fill="#C5CCDE"/>
<g filter="url(#filter1_d_568_2858)">
<path d="M138.244 92.6066H68.6309C66.6276 92.6066 65 90.9399 65 88.8886V69.1447C65 67.0933 66.6276 65.4266 68.6309 65.4266H138.369C140.372 65.4266 142 67.0933 142 69.1447V88.8886C142 90.9399 140.372 92.6066 138.244 92.6066Z" fill="white"/>
</g>
<path d="M76.5089 72.7543L78.0106 75.7865C78.1357 75.9128 78.2608 76.0391 78.386 76.0391L81.7648 76.6708C82.1402 76.7972 82.3905 77.3025 82.015 77.5552L79.6374 79.9556C79.5122 80.082 79.5122 80.2083 79.5122 80.461L80.1379 83.8722C80.2631 84.2512 79.7625 84.6302 79.3871 84.3775L76.3837 82.7351C76.2586 82.6088 76.0083 82.6088 75.8832 82.7351L72.8798 84.3775C72.5044 84.6302 72.0038 84.2512 72.129 83.8722L72.7547 80.461C72.7547 80.3347 72.7547 80.082 72.6295 79.9556L70.2519 77.5552C69.8765 77.3025 70.1267 76.6708 70.5022 76.6708L73.8809 76.1655C74.0061 76.1655 74.2564 76.0391 74.2564 75.9128L75.758 72.8806C75.758 72.3753 76.2586 72.3753 76.5089 72.7543Z" fill="url(#paint7_linear_568_2858)"/>
<path opacity="0.3" d="M76.0084 75.1548H75.8832C75.6328 75.0284 75.6328 74.7757 75.6328 74.6494V74.5231C75.758 74.2704 76.0084 74.2704 76.2587 74.2704C76.5091 74.3967 76.5091 74.6494 76.5091 74.9021C76.2587 75.0284 76.1336 75.1548 76.0084 75.1548Z" fill="white"/>
<path opacity="0.3" d="M73.7562 80.0822C73.631 80.0822 73.3808 79.9558 73.3808 79.8295C73.2556 79.5768 73.2556 79.4505 73.0053 79.3241L71.6288 77.9344C71.5037 77.8081 71.5037 77.6817 71.5037 77.5554C71.5037 77.429 71.6288 77.3027 71.8791 77.3027L73.7562 77.05C74.2567 76.9237 74.6322 76.671 74.7573 76.292L75.0076 75.913C75.1327 75.6603 75.383 75.6603 75.6333 75.6603C75.8836 75.7866 75.8836 76.0393 75.8836 76.292L75.5081 76.5447C75.1327 77.1764 74.507 77.6817 73.8813 77.8081L72.8802 77.9344L73.631 78.6924C73.8813 78.9451 74.0065 79.1978 74.1316 79.5768C74.2567 79.8295 74.1316 80.0822 73.8813 80.0822H73.7562Z" fill="white"/>
<path d="M90.0239 72.7543L91.5256 75.7865C91.6507 75.9128 91.7759 76.0391 91.901 76.0391L95.2798 76.5445C95.6552 76.6708 95.9055 77.1762 95.5301 77.4289L93.0273 79.9556C92.9021 80.082 92.9021 80.2083 92.9021 80.461L93.5278 83.8722C93.653 84.2512 93.1524 84.6302 92.777 84.3775L89.7736 82.7351C89.6485 82.6088 89.3982 82.6088 89.2731 82.7351L86.2697 84.3775C85.8943 84.6302 85.3937 84.2512 85.5189 83.8722L86.1446 80.461C86.1446 80.3347 86.1446 80.082 86.0194 79.9556L83.6418 77.5552C83.2663 77.3025 83.5166 76.6708 83.892 76.6708L87.2708 76.1655C87.396 76.1655 87.6462 76.0391 87.6462 75.9128L89.1479 72.8806C89.2731 72.3753 89.7736 72.3753 90.0239 72.7543Z" fill="url(#paint8_linear_568_2858)"/>
<path opacity="0.3" d="M89.3983 75.1548H89.2731C89.0227 75.0284 89.0227 74.7757 89.0227 74.6494V74.5231C89.1479 74.2704 89.3983 74.2704 89.6486 74.2704C89.899 74.3967 89.899 74.6494 89.899 74.9021C89.7738 75.0284 89.6486 75.1548 89.3983 75.1548Z" fill="white"/>
<path opacity="0.3" d="M87.2713 80.0822C87.1462 80.0822 86.8959 79.9558 86.8959 79.8295C86.7708 79.5768 86.7708 79.4505 86.5205 79.3241L85.1439 77.9344C85.0188 77.8081 85.0188 77.6817 85.0188 77.5554C85.0188 77.429 85.1439 77.3027 85.3942 77.3027L87.2713 77.05C87.7719 76.9237 88.1473 76.671 88.2724 76.292L88.5227 75.913C88.6479 75.6603 88.8981 75.6603 89.1484 75.6603C89.3987 75.7866 89.3987 76.0393 89.3987 76.292L89.1484 76.671C88.773 77.3027 88.1473 77.8081 87.5216 77.9344H86.3953L87.1462 78.6924C87.3965 78.9451 87.5216 79.1978 87.6467 79.5768C87.7719 79.8295 87.6467 80.0822 87.3965 80.0822C87.2713 80.0822 87.2713 80.0822 87.2713 80.0822Z" fill="white"/>
<path d="M103.414 72.7543L104.916 75.7865C105.041 75.9128 105.166 76.0391 105.291 76.0391L108.67 76.5445C109.045 76.6708 109.296 77.1762 108.92 77.4289L106.543 79.8293C106.417 79.9557 106.417 80.082 106.417 80.3347L107.043 83.7458C107.168 84.1249 106.668 84.5039 106.292 84.2512L103.289 82.6088C103.164 82.4824 102.913 82.4824 102.788 82.6088L99.785 84.2512C99.4096 84.5039 98.909 84.1249 99.0341 83.7458L99.6598 80.3347C99.6598 80.2083 99.6598 79.9557 99.5347 79.8293L97.157 77.4289C96.6565 77.3025 96.7816 76.6708 97.2822 76.6708L100.661 76.1655C100.786 76.1655 101.036 76.0391 101.036 75.9128L102.538 72.8806C102.663 72.3753 103.289 72.3753 103.414 72.7543Z" fill="url(#paint9_linear_568_2858)"/>
<path opacity="0.3" d="M102.914 75.1548H102.788C102.538 75.0284 102.538 74.7757 102.538 74.6494V74.5231C102.663 74.2704 102.914 74.2704 103.164 74.2704C103.414 74.3967 103.414 74.6494 103.414 74.9021C103.289 75.0284 103.164 75.1548 102.914 75.1548Z" fill="white"/>
<path opacity="0.3" d="M100.662 80.0822C100.536 80.0822 100.286 79.9558 100.286 79.8295C100.161 79.5768 100.161 79.4505 99.9107 79.3241L98.6593 77.9344C98.5342 77.8081 98.5342 77.6817 98.5342 77.5554C98.5342 77.429 98.6593 77.3027 98.9096 77.3027L100.787 77.05C101.287 76.9237 101.663 76.671 101.788 76.292L102.038 75.913C102.163 75.6603 102.414 75.6603 102.664 75.6603C102.914 75.7866 102.914 76.0393 102.914 76.292L102.664 76.671C102.288 77.3027 101.663 77.8081 101.037 77.9344H99.7856L100.536 78.6924C100.787 78.9451 100.912 79.1978 101.037 79.5768C101.162 79.8295 101.037 80.0822 100.787 80.0822C100.787 80.0822 100.787 80.0822 100.662 80.0822Z" fill="white"/>
<path d="M116.929 72.7543L118.431 75.7865C118.556 75.9128 118.681 76.0391 118.806 76.0391L122.185 76.5445C122.56 76.6708 122.811 77.1762 122.435 77.4289L120.058 79.8293C119.933 79.9557 119.933 80.082 119.933 80.3347L120.558 83.7458C120.683 84.1249 120.183 84.5039 119.807 84.2512L116.804 82.6088C116.679 82.4824 116.429 82.4824 116.303 82.6088L113.3 84.2512C112.925 84.5039 112.424 84.1249 112.549 83.7458L113.05 80.461C113.05 80.3347 113.05 80.082 112.925 79.9556L110.547 77.5552C110.172 77.3025 110.422 76.6708 110.797 76.6708L114.176 76.1655C114.301 76.1655 114.552 76.0391 114.552 75.9128L116.053 72.8806C116.178 72.3753 116.804 72.3753 116.929 72.7543Z" fill="url(#paint10_linear_568_2858)"/>
<path opacity="0.3" d="M116.429 75.1548H116.304C116.053 75.0284 116.053 74.7757 116.053 74.6494V74.5231C116.178 74.2704 116.429 74.2704 116.679 74.2704C116.93 74.3967 116.93 74.6494 116.93 74.9021C116.804 75.0284 116.554 75.1548 116.429 75.1548Z" fill="white"/>
<path opacity="0.3" d="M114.177 80.0822C114.052 80.0822 113.801 79.9558 113.801 79.8295C113.676 79.5768 113.676 79.4505 113.426 79.3241L112.174 77.9344C112.049 77.8081 112.049 77.6817 112.049 77.5554C112.049 77.429 112.174 77.3027 112.425 77.3027L114.302 77.05C114.802 76.9237 115.178 76.671 115.303 76.292L115.553 75.913C115.678 75.6603 115.929 75.6603 116.179 75.6603C116.429 75.7866 116.429 76.0393 116.429 76.292L116.179 76.671C115.804 77.3027 115.178 77.8081 114.552 77.9344H113.301L114.052 78.6924C114.302 78.9451 114.427 79.1978 114.552 79.5768C114.677 79.8295 114.552 80.0822 114.302 80.0822C114.302 80.0822 114.302 80.0822 114.177 80.0822Z" fill="white"/>
<path d="M130.444 72.7545L131.946 75.7866C132.071 75.913 132.196 76.0393 132.321 76.0393L135.7 76.5447C136.075 76.671 136.326 77.1764 135.95 77.429L133.573 79.8295C133.448 79.9558 133.448 80.0822 133.448 80.3348L134.073 83.746C134.198 84.125 133.698 84.5041 133.322 84.2514L130.319 82.609C130.194 82.4826 129.944 82.4826 129.818 82.609L126.815 84.2514C126.44 84.5041 125.939 84.125 126.064 83.746L126.69 80.3348C126.69 80.2085 126.69 79.9558 126.565 79.8295L124.187 77.429C123.812 77.1764 124.062 76.5447 124.437 76.5447L127.816 76.0393C127.941 76.0393 128.192 75.913 128.192 75.7866L129.693 72.7545C129.693 72.3755 130.194 72.3755 130.444 72.7545Z" fill="url(#paint11_linear_568_2858)"/>
<path opacity="0.3" d="M129.944 75.1549H129.818C129.568 75.0286 129.568 74.7759 129.568 74.6495V74.5232C129.693 74.2705 129.944 74.2705 130.194 74.2705C130.444 74.3968 130.444 74.6495 130.444 74.9022C130.319 75.0285 130.069 75.1549 129.944 75.1549Z" fill="white"/>
<path opacity="0.3" d="M127.691 80.0823C127.566 80.0823 127.316 79.9559 127.316 79.8296C127.191 79.5769 127.191 79.4506 126.941 79.3242L125.564 77.9345C125.439 77.8082 125.439 77.6818 125.439 77.5555C125.439 77.4292 125.564 77.3028 125.814 77.3028L127.691 77.0501C128.192 76.9238 128.567 76.6711 128.693 76.2921L128.943 75.9131C129.068 75.6604 129.318 75.6604 129.569 75.6604C129.819 75.7867 129.819 76.0394 129.819 76.2921L129.569 76.6711C129.193 77.3028 128.567 77.8082 127.942 77.9345H126.816L127.566 78.6926C127.817 78.9452 127.942 79.1979 128.067 79.5769C128.192 79.8296 128.067 80.0823 127.817 80.0823H127.691Z" fill="white"/>
<g filter="url(#filter2_d_568_2858)">
<path d="M143.155 27.6779C142.884 28.6336 142.478 29.726 141.937 30.5452C140.585 33.822 136.934 37.7811 131.795 39.8291C128.684 41.0579 125.033 41.6043 121.111 40.7851C110.833 38.6006 104.342 28.4972 106.371 18.2573C109.481 3.37528 127.603 -2.08614 138.286 8.56337C143.56 13.7516 145.183 21.1243 143.155 27.6779Z" fill="url(#paint12_linear_568_2858)"/>
</g>
<path d="M143 27.8634C142.736 28.8384 142.339 29.9527 141.81 30.7884C140.489 34.1313 136.92 38.1706 131.897 40.2599L120 27.7241L128.592 20.0633L133.615 18.1133L143 27.8634Z" fill="url(#paint13_linear_568_2858)"/>
<path d="M133.272 17.833C131.461 14.6634 127.194 14.25 124.996 17.1439C122.797 14.1122 118.53 14.5256 116.719 17.833C115.167 20.5891 116.331 23.0696 118.271 25.4122C120.211 27.8927 122.926 30.0976 124.349 30.9244C124.608 31.0622 124.866 31.2001 125.125 31.2001C125.383 31.2001 125.642 31.2 125.901 30.9244C127.194 30.0976 130.039 27.8927 131.979 25.4122C133.66 23.0696 134.824 20.5891 133.272 17.833Z" fill="url(#paint14_linear_568_2858)"/>
<defs>
<filter id="filter0_d_568_2858" x="0" y="5.85547" width="154.348" height="116.914" filterUnits="userSpaceOnUse" color-interpolation-filters="sRGB">
<feFlood flood-opacity="0" result="BackgroundImageFix"/>
<feColorMatrix in="SourceAlpha" type="matrix" values="0 0 0 0 0 0 0 0 0 0 0 0 0 0 0 0 0 0 127 0" result="hardAlpha"/>
<feOffset dy="11"/>
<feGaussianBlur stdDeviation="11"/>
<feColorMatrix type="matrix" values="0 0 0 0 0.397708 0 0 0 0 0.47749 0 0 0 0 0.575 0 0 0 0.18 0"/>
<feBlend mode="normal" in2="BackgroundImageFix" result="effect1_dropShadow_568_2858"/>
<feBlend mode="normal" in="SourceGraphic" in2="effect1_dropShadow_568_2858" result="shape"/>
</filter>
<filter id="filter1_d_568_2858" x="43" y="45.4266" width="121" height="71.1801" filterUnits="userSpaceOnUse" color-interpolation-filters="sRGB">
<feFlood flood-opacity="0" result="BackgroundImageFix"/>
<feColorMatrix in="SourceAlpha" type="matrix" values="0 0 0 0 0 0 0 0 0 0 0 0 0 0 0 0 0 0 127 0" result="hardAlpha"/>
<feOffset dy="2"/>
<feGaussianBlur stdDeviation="11"/>
<feColorMatrix type="matrix" values="0 0 0 0 0.397708 0 0 0 0 0.47749 0 0 0 0 0.575 0 0 0 0.21 0"/>
<feBlend mode="normal" in2="BackgroundImageFix" result="effect1_dropShadow_568_2858"/>
<feBlend mode="normal" in="SourceGraphic" in2="effect1_dropShadow_568_2858" result="shape"/>
</filter>
<filter id="filter2_d_568_2858" x="98" y="0.0133057" width="54" height="54.1613" filterUnits="userSpaceOnUse" color-interpolation-filters="sRGB">
<feFlood flood-opacity="0" result="BackgroundImageFix"/>
<feColorMatrix in="SourceAlpha" type="matrix" values="0 0 0 0 0 0 0 0 0 0 0 0 0 0 0 0 0 0 127 0" result="hardAlpha"/>
<feOffset dy="5"/>
<feGaussianBlur stdDeviation="4"/>
<feColorMatrix type="matrix" values="0 0 0 0 0.968627 0 0 0 0 0.254902 0 0 0 0 0.564706 0 0 0 0.3 0"/>
<feBlend mode="normal" in2="BackgroundImageFix" result="effect1_dropShadow_568_2858"/>
<feBlend mode="normal" in="SourceGraphic" in2="effect1_dropShadow_568_2858" result="shape"/>
</filter>
<linearGradient id="paint0_linear_568_2858" x1="22" y1="20.5045" x2="132.343" y2="20.5045" gradientUnits="userSpaceOnUse">
<stop stop-color="#F25353"/>
<stop offset="1" stop-color="white"/>
</linearGradient>
<linearGradient id="paint1_linear_568_2858" x1="94.1091" y1="42.303" x2="128.93" y2="42.303" gradientUnits="userSpaceOnUse">
<stop stop-color="#CED7E2"/>
<stop offset="1" stop-color="#E6ECF5"/>
</linearGradient>
<linearGradient id="paint2_linear_568_2858" x1="94.1091" y1="48.3759" x2="128.93" y2="48.3759" gradientUnits="userSpaceOnUse">
<stop stop-color="#CED7E2"/>
<stop offset="1" stop-color="#E6ECF5"/>
</linearGradient>
<linearGradient id="paint3_linear_568_2858" x1="94.1091" y1="54.449" x2="128.93" y2="54.449" gradientUnits="userSpaceOnUse">
<stop stop-color="#CED7E2"/>
<stop offset="1" stop-color="#E6ECF5"/>
</linearGradient>
<linearGradient id="paint4_linear_568_2858" x1="93.9812" y1="60.3519" x2="112.036" y2="60.3519" gradientUnits="userSpaceOnUse">
<stop stop-color="#CED7E2"/>
<stop offset="1" stop-color="#E6ECF5"/>
</linearGradient>
<linearGradient id="paint5_linear_568_2858" x1="91.0983" y1="6.77181" x2="94.4381" y2="6.77181" gradientUnits="userSpaceOnUse">
<stop stop-color="#83A6FF"/>
<stop offset="1" stop-color="#5A78FF"/>
</linearGradient>
<linearGradient id="paint6_linear_568_2858" x1="45.1676" y1="101.699" x2="48.5075" y2="101.699" gradientUnits="userSpaceOnUse">
<stop stop-color="#FF6666"/>
<stop offset="1" stop-color="#F53636"/>
</linearGradient>
<linearGradient id="paint7_linear_568_2858" x1="72.8904" y1="73.5691" x2="79.4858" y2="83.7058" gradientUnits="userSpaceOnUse">
<stop stop-color="#83A6FF"/>
<stop offset="1" stop-color="#5A78FF"/>
</linearGradient>
<linearGradient id="paint8_linear_568_2858" x1="86.3094" y1="73.5691" x2="92.8772" y2="83.7674" gradientUnits="userSpaceOnUse">
<stop stop-color="#83A6FF"/>
<stop offset="1" stop-color="#5A78FF"/>
</linearGradient>
<linearGradient id="paint9_linear_568_2858" x1="99.6936" y1="73.5577" x2="106.162" y2="83.7145" gradientUnits="userSpaceOnUse">
<stop stop-color="#83A6FF"/>
<stop offset="1" stop-color="#5A78FF"/>
</linearGradient>
<linearGradient id="paint10_linear_568_2858" x1="113.215" y1="73.5577" x2="119.684" y2="83.7108" gradientUnits="userSpaceOnUse">
<stop stop-color="#83A6FF"/>
<stop offset="1" stop-color="#5A78FF"/>
</linearGradient>
<linearGradient id="paint11_linear_568_2858" x1="126.826" y1="73.545" x2="133.334" y2="83.6427" gradientUnits="userSpaceOnUse">
<stop stop-color="#83A6FF"/>
<stop offset="1" stop-color="#5A78FF"/>
</linearGradient>
<linearGradient id="paint12_linear_568_2858" x1="106.126" y1="22.0639" x2="143.975" y2="22.0639" gradientUnits="userSpaceOnUse">
<stop stop-color="#FF6666"/>
<stop offset="1" stop-color="#F53636"/>
</linearGradient>
<linearGradient id="paint13_linear_568_2858" x1="125.943" y1="21.9327" x2="139.445" y2="34.7461" gradientUnits="userSpaceOnUse">
<stop stop-color="#E81717"/>
<stop offset="1" stop-color="#E01F1F" stop-opacity="0"/>
</linearGradient>
<linearGradient id="paint14_linear_568_2858" x1="131.148" y1="26.5989" x2="118.354" y2="16.2487" gradientUnits="userSpaceOnUse">
<stop offset="0.0113208" stop-color="#FFC9E3"/>
<stop offset="1" stop-color="white"/>
</linearGradient>
</defs>
</svg>
